<svg xmlns="http://www.w3.org/2000/svg" viewBox="0 0 128 128">
  <defs>
    <linearGradient id="background" x1="18" y1="10" x2="110" y2="122" gradientUnits="userSpaceOnUse">
      <stop offset="0" stop-color="#203763"/>
      <stop offset="1" stop-color="#172c56"/>
    </linearGradient>
    <linearGradient id="mark" x1="21" y1="35" x2="111" y2="92" gradientUnits="userSpaceOnUse">
      <stop offset="0" stop-color="#d3fbf1"/>
      <stop offset="1" stop-color="#a9eee5"/>
    </linearGradient>
    <filter id="soft-shadow" x="-20%" y="-20%" width="140%" height="140%">
      <feDropShadow dx="0" dy="2" stdDeviation="2" flood-color="#051225" flood-opacity="0.22"/>
    </filter>
  </defs>

  <rect x="4" y="4" width="120" height="120" rx="31" fill="url(#background)"/>

  <g fill="none" stroke="url(#mark)" stroke-width="7.5" stroke-linecap="round" stroke-linejoin="round" filter="url(#soft-shadow)">
    <rect x="28" y="43" width="28" height="40" rx="14"/>
    <path d="M21 62v6c0 11.6 9.4 21 21 21s21-9.4 21-21v-6"/>
    <path d="M42 89v14"/>
    <path d="M30 103h24"/>

    <path d="M59 72h7c6 0 3-13 9-13 7 0 3 23 10 23 7 0 2-38 11-38 5.5 0 7 4 7 8v30"/>

    <path d="M92 57h27"/>
    <path d="M92 72h22"/>
    <path d="M92 87h11"/>
    <path d="M111 87h8"/>
  </g>
</svg>
